HIERARCHY
ROOT hip
{
	OFFSET 0.000000 0.000000 0.000000
	CHANNELS 6 Xposition Yposition Zposition Zrotation Yrotation Xrotation 
	JOINT lhipjoint
	{
		OFFSET 0.000000 0.000000 0.000000
		CHANNELS 3 Zrotation Yrotation Xrotation
		JOINT lfemur
		{
			OFFSET 1.363060 -1.794630 0.839290
			CHANNELS 3 Zrotation Yrotation Xrotation
			JOINT ltibia
			{
				OFFSET 2.448110 -6.726130 0.000000
				CHANNELS 3 Zrotation Yrotation Xrotation
				JOINT lfoot
				{
					OFFSET 2.562200 -7.039590 0.000000
					CHANNELS 3 Zrotation Yrotation Xrotation
					JOINT ltoes
					{
						OFFSET 0.157640 -0.433110 2.322550
						CHANNELS 3 Zrotation Yrotation Xrotation
						End Site
						{
							OFFSET 0.000000 0.000000 0.000000
						}
					}
				}
			}
		}
	}
	JOINT rhipjoint
	{
		OFFSET 0.000000 0.000000 0.000000
		CHANNELS 3 Zrotation Yrotation Xrotation
		JOINT rfemur
		{
			OFFSET -1.305520 -1.794630 0.839290
			CHANNELS 3 Zrotation Yrotation Xrotation
			JOINT rtibia
			{
				OFFSET -2.542530 -6.985550 0.000000
				CHANNELS 3 Zrotation Yrotation Xrotation
				JOINT rfoot
				{
					OFFSET -2.568260 -7.056230 0.000000
					CHANNELS 3 Zrotation Yrotation Xrotation
					JOINT rtoes
					{
						OFFSET -0.164730 -0.452590 2.363150
						CHANNELS 3 Zrotation Yrotation Xrotation
						End Site
						{
							OFFSET 0.000000 0.000000 0.000000
						}
					}
				}
			}
		}
	}
	JOINT lowerback
	{
		OFFSET 0.000000 0.000000 0.000000
		CHANNELS 3 Zrotation Yrotation Xrotation
		JOINT upperback
		{
			OFFSET 0.028270 2.035590 -0.193380
			CHANNELS 3 Zrotation Yrotation Xrotation
			JOINT thorax
			{
				OFFSET 0.056720 2.048850 -0.042750
				CHANNELS 3 Zrotation Yrotation Xrotation
				JOINT lowerneck
				{
					OFFSET 0.000000 0.000000 0.000000
					CHANNELS 3 Zrotation Yrotation Xrotation
					JOINT upperneck
					{
						OFFSET -0.054170 1.746240 0.172020
						CHANNELS 3 Zrotation Yrotation Xrotation
						JOINT head
						{
							OFFSET 0.104070 1.761360 -0.123970
							CHANNELS 3 Zrotation Yrotation Xrotation
							End Site
							{
								OFFSET 0.000000 0.000000 0.000000
							}
						}
					}
				}
				JOINT lclavicle
				{
					OFFSET 0.000000 0.000000 0.000000
					CHANNELS 3 Zrotation Yrotation Xrotation
					JOINT lhumerus
					{
						OFFSET 3.362410 1.200890 -0.311210
						CHANNELS 3 Zrotation Yrotation Xrotation
						JOINT lradius
						{
							OFFSET 4.983000 -0.000000 -0.000000
							CHANNELS 3 Zrotation Yrotation Xrotation
							JOINT lwrist
							{
								OFFSET 3.483560 -0.000000 -0.000000
								CHANNELS 3 Zrotation Yrotation Xrotation
								JOINT lhand
								{
									OFFSET 0.000000 0.000000 0.000000
									CHANNELS 3 Zrotation Yrotation Xrotation
									JOINT lfingers
									{
										OFFSET 0.715260 -0.000000 -0.000000
										CHANNELS 3 Zrotation Yrotation Xrotation
										End Site
										{
											OFFSET 0.000000 0.000000 0.000000
										}
									}
								}
								JOINT lthumb
								{
									OFFSET 0.000000 0.000000 0.000000
									CHANNELS 3 Zrotation Yrotation Xrotation
									End Site
									{
										OFFSET 0.000000 0.000000 0.000000
									}
								}
							}
						}
					}
				}
				JOINT rclavicle
				{
					OFFSET 0.000000 0.000000 0.000000
					CHANNELS 3 Zrotation Yrotation Xrotation
					JOINT rhumerus
					{
						OFFSET -3.136600 1.374050 -0.404650
						CHANNELS 3 Zrotation Yrotation Xrotation
						JOINT rradius
						{
							OFFSET -5.241900 -0.000000 -0.000000
							CHANNELS 3 Zrotation Yrotation Xrotation
							JOINT rwrist
							{
								OFFSET -3.444170 -0.000000 -0.000000
								CHANNELS 3 Zrotation Yrotation Xrotation
								JOINT rhand
								{
									OFFSET 0.000000 0.000000 0.000000
									CHANNELS 3 Zrotation Yrotation Xrotation
									JOINT rfingers
									{
										OFFSET -0.622530 -0.000000 -0.000000
										CHANNELS 3 Zrotation Yrotation Xrotation
										End Site
										{
											OFFSET 0.000000 0.000000 0.000000
										}
									}
								}
								JOINT rthumb
								{
									OFFSET 0.000000 0.000000 0.000000
									CHANNELS 3 Zrotation Yrotation Xrotation
									End Site
									{
										OFFSET 0.000000 0.000000 0.000000
									}
								}
							}
						}
					}
				}
			}
		}
	}
}
MOTION
Frames: 8
Frame Time: 0.008333
0.474943 17.074850 4.179090 -157.039588 -37.817535 161.504357 -5.102535 -3.988775 -3.817738 2.750038 -16.899351 -4.643340 3.917671 13.834494 35.386814 -1.034671 -19.873272 2.148405 0.427700 4.197200 11.632100 10.436382 0.109711 3.544695 -2.323167 18.093529 -105.124668 -31.867697 -9.928936 131.519438 -2.432084 17.031621 10.722992 -1.338300 7.325000 -20.681800 -1.232606 2.825591 46.759399 2.354287 -2.931990 1.122742 0.962967 -4.613530 9.683928 -9.997011 -8.430098 -9.641787 30.083936 -15.131329 -5.055992 9.694000 -8.726500 0.625900 -6.393639 -4.458556 3.194709 166.240353 -78.732728 152.008504 63.236042 -61.302701 -37.124936 -0.884021 2.118042 2.553776 40.467022 -11.128653 -11.793000 -7.125000 0.000000 0.000000 9.401000 12.195600 -7.304300 8.072566 2.122403 3.740893 72.924243 -13.850976 18.178792 -7.498068 27.063692 -1.794711 0.023536 -0.567255 23.133282 -2.935032 12.894142 -0.738100 7.125000 0.000000 0.000000 16.514100 -16.879500 11.499000 
0.464821 17.071446 4.179179 -157.221016 -37.753149 161.488904 -5.092703 -3.997229 -3.828948 2.524152 -16.793353 -4.445998 3.914870 13.851851 35.382345 -1.027082 -19.846563 2.150734 0.445100 4.280700 11.867700 10.457942 0.109393 3.555824 -2.207421 17.925497 -105.073229 -31.941422 -9.890128 131.773415 -2.430940 17.177104 10.572708 -1.479800 7.686200 -21.765100 -1.349376 2.831830 46.631288 2.356154 -3.005456 1.161571 0.964579 -4.682730 9.882336 -9.890645 -8.389602 -9.944387 30.073998 -15.100568 -4.866413 9.617200 -8.686800 0.721800 -6.394240 -4.424165 3.189149 166.238670 -78.940411 151.942025 63.268868 -61.296103 -37.168865 -0.883903 2.111213 2.622826 40.563188 -11.109017 -11.810300 -7.125000 0.000000 0.000000 9.469400 12.207000 -7.356600 8.069757 2.092663 3.750636 72.911482 -13.462895 18.089950 -7.390041 26.968955 -1.776069 0.021068 -0.546826 23.117740 -2.833677 13.146151 -0.724300 7.125000 0.000000 0.000000 16.570600 -16.658500 11.625600 
0.452818 17.069475 4.178104 -157.405082 -37.660739 161.491716 -5.082670 -4.007015 -3.839287 2.304549 -16.674047 -4.223322 3.901625 13.858111 35.330753 -1.015061 -19.787442 2.116755 0.457600 4.339300 12.033400 10.474401 0.107268 3.565969 -2.077119 17.776664 -104.970610 -32.006268 -9.856520 131.995210 -2.433008 17.238160 10.454122 -1.645000 8.083800 -22.969000 -1.475970 2.831794 46.439027 2.354445 -3.083980 1.196519 0.949584 -4.746331 10.079058 -9.762146 -8.308143 -10.207449 30.071648 -15.021916 -4.692358 9.549000 -8.631300 0.791800 -6.392578 -4.395293 3.186476 166.264916 -79.231037 151.887876 63.193393 -61.268594 -37.132635 -0.885276 2.099000 2.645958 40.757966 -11.113469 -11.884600 -7.125000 0.000000 0.000000 9.597200 12.169000 -7.466600 8.062123 2.064672 3.761132 72.935281 -13.097142 17.947380 -7.281131 26.873875 -1.756888 0.023365 -0.528405 23.256834 -2.712350 13.339164 -0.703400 7.125000 0.000000 0.000000 16.640500 -16.495300 11.741300 
0.440187 17.069386 4.176402 -157.638779 -37.568901 161.542713 -5.069880 -4.015269 -3.847494 2.051249 -16.510297 -4.018584 3.881328 13.850239 35.235394 -1.006146 -19.746751 2.120795 0.469000 4.392600 12.183900 10.488637 0.102542 3.577476 -1.976840 17.619787 -104.831290 -32.062080 -9.829319 132.190308 -2.443453 17.126070 10.427680 -1.770300 8.370400 -23.844700 -1.623281 2.831297 46.217105 2.341386 -3.166007 1.217812 0.887680 -4.795437 10.242073 -9.571091 -8.208101 -10.436511 30.076950 -14.924261 -4.551938 9.479900 -8.577600 0.835400 -6.382685 -4.370697 3.199440 166.490074 -79.618863 151.732858 63.122929 -61.241298 -37.092282 -0.886409 2.085597 2.673577 41.005343 -11.084890 -11.953700 -7.125000 0.000000 0.000000 9.764900 12.159400 -7.603000 8.038524 2.046570 3.765538 73.055500 -12.767009 17.719741 -7.138416 26.755339 -1.732477 0.024115 -0.508506 23.465488 -2.607762 13.569064 -0.687200 7.125000 0.000000 0.000000 16.697400 -16.297300 11.860700 
0.424959 17.070013 4.174879 -157.902109 -37.466995 161.577686 -5.056632 -4.024241 -3.852938 1.748853 -16.344175 -3.732932 3.851175 13.834421 35.093686 -0.988688 -19.649270 2.115798 0.484800 4.464900 12.388500 10.500302 0.093789 3.593520 -1.873737 17.429268 -104.597935 -32.111389 -9.809729 132.360922 -2.458631 16.941795 10.485059 -1.899400 8.653400 -24.716900 -1.798086 2.818747 46.002343 2.336634 -3.247149 1.222275 0.902274 -4.848648 10.344677 -9.535577 -8.100712 -10.569376 30.116291 -14.813088 -4.423394 9.469000 -8.514700 0.873600 -6.374005 -4.359454 3.228789 166.961086 -80.092678 151.282288 63.020385 -61.199039 -37.025772 -0.875745 2.078261 2.704232 41.134627 -11.344703 -12.214500 -7.125000 0.000000 0.000000 9.793600 11.809000 -7.698100 8.014135 2.026446 3.763632 73.123023 -12.519448 17.452219 -7.001329 26.622972 -1.709752 0.024893 -0.487832 23.819283 -2.553198 13.785435 -0.682000 7.125000 0.000000 0.000000 16.721900 -16.111700 11.950400 
0.409193 17.072611 4.172282 -158.147281 -37.311533 161.621697 -5.044168 -4.035082 -3.854683 1.491596 -16.133555 -3.446314 3.813428 13.810373 34.920565 -0.973459 -19.562269 2.089153 0.495000 4.511000 12.519000 10.496690 0.077835 3.606988 -1.719520 17.344096 -104.287202 -32.140471 -9.798433 132.460475 -2.479175 16.641281 10.655253 -1.991800 8.848900 -25.323800 -1.928977 2.806938 45.748990 2.321706 -3.297618 1.207228 0.861694 -4.864732 10.408268 -9.340700 -8.052668 -10.827993 29.967067 -14.771559 -4.047348 9.323300 -8.444900 0.987100 -6.355127 -4.333611 3.285067 167.815274 -80.604925 150.532746 62.996324 -61.166883 -37.013512 -0.874388 2.067282 2.641749 41.321995 -11.348647 -12.289400 -7.125000 0.000000 0.000000 9.911500 11.767000 -7.802500 7.997808 2.038232 3.747410 73.245943 -12.466286 17.455152 -7.039096 26.683844 -1.715702 0.027259 -0.488328 23.916275 -2.504989 13.824225 -0.672600 7.125000 0.000000 0.000000 16.748900 -16.077100 11.984700 
0.391994 17.076821 4.168699 -158.456805 -37.171995 161.715938 -5.029864 -4.039091 -3.850609 1.166945 -15.934019 -3.156222 3.771647 13.774544 34.713974 -0.953034 -19.442682 2.062669 0.503800 4.550200 12.630000 10.494952 0.060434 3.625392 -1.616991 17.188450 -103.911202 -32.154986 -9.803324 132.505656 -2.501286 16.364894 10.937394 -2.056600 8.983000 -25.742000 -2.118688 2.771141 45.462162 2.301883 -3.369297 1.163585 0.836487 -4.883285 10.407928 -9.109798 -8.029592 -11.159092 29.681555 -14.759493 -3.412474 9.097400 -8.346800 1.179600 -6.324519 -4.302000 3.368992 169.110804 -81.235536 149.322457 62.855428 -61.097982 -36.912853 -0.867455 2.055610 2.601718 41.452551 -11.448362 -12.416900 -7.125000 0.000000 0.000000 9.971900 11.621500 -7.882000 7.964278 2.065434 3.718395 73.375742 -12.412835 17.292913 -6.939525 26.593838 -1.698227 0.025335 -0.478625 24.325059 -2.561944 13.933513 -0.690700 7.125000 0.000000 0.000000 16.705600 -15.979600 11.987800 
0.372376 17.081927 4.164936 -158.749231 -37.002733 161.815748 -5.018391 -4.040125 -3.841558 0.876094 -15.717718 -2.879589 3.726434 13.735026 34.493503 -0.931699 -19.308157 2.074096 0.525700 4.646600 12.903400 10.485209 0.040405 3.641728 -1.475973 17.042215 -103.434243 -32.146227 -9.827169 132.461639 -2.527676 16.075150 11.366352 -2.092500 9.056100 -25.971000 -2.321040 2.704491 45.119066 2.289203 -3.461202 1.109999 0.855989 -4.912037 10.393276 -8.886810 -7.947690 -11.386339 29.345395 -14.657668 -2.831539 8.880100 -8.217700 1.305200 -6.292485 -4.269566 3.488663 170.757057 -82.005937 147.717352 62.782145 -61.024738 -36.873475 -0.860421 2.041160 2.595961 41.516459 -11.439301 -12.420600 -7.125000 0.000000 0.000000 10.011900 11.637700 -7.911200 7.932597 2.080287 3.686178 73.399077 -12.315601 17.147177 -6.754415 26.400271 -1.665960 0.018446 -0.461133 24.767416 -2.698074 14.095328 -0.729200 7.125000 0.000000 0.000000 16.611800 -15.834000 11.969200 
